<svg width="110" height="63" fill="none" xmlns="http://www.w3.org/2000/svg"><path d="M18.522 39.771c-.793.107-1.843.117-2.556.54-.277.163-.731.492-1.039.539-.813.122-1.06.82-1.717 1.168-1.65.873-3.337 2.237-4.723 3.485-2.59 2.33-4.502 5.35-5.961 8.477-.72 1.543-2.713 5.833-.54 6.92 1.402.7 3.077-.53 4.094-1.498.946-.9 1.965-1.47 2.397-2.766 1.702-5.108 4.736-9.54 6.05-14.798.222-.883.3-1.73.41-2.616.157-1.257.696-2.494.889-3.764.347-2.287.32-4.615.988-6.84.504-1.68.829-2.74.31-4.503-.262-.892-.415-2.694-1.298-3.136-.555-.277-.324-.506-1.109-.33-.873.197-1.438.69-2.166 1.15-.823.517-1.129 1.267-1.758 1.986-1.026 1.172-1.365 3.345-1.617 4.843-.17 1.002-.527 1.974-.54 2.995-.017 1.428 0 2.857 0 4.284 0 1.623 1.045 3.2 1.898 4.503.72 1.101.964 2.165 2.136 2.946 1.71 1.14 3.245 3.035 5.582 2.516.738-.164 1.714-.809 2.367-1.188 1.007-.586 1.768-1.409 2.586-2.227.9-.9 1.809-1.99 2.186-3.225.48-1.57.678-3.206 1.209-4.753.765-2.232 2.493-3.08 4.083-4.633.702-.685 1.752-2.228 2.657-2.486 1.633-.467.523 6.06.449 6.91-.078.896-.529 2.335-.999 3.095-.502.81-.925 2.021-1.687 2.626-1.415 1.124-2.557 1.578-4.394 1.578-.564 0-.284-2.262-.28-2.617.048-3.34 1.546-5.633 3.316-8.207.978-1.424 2.133-2.22 3.435-3.285.142-.117.55-.608.609-.26.083.499.32.957.509 1.428.504 1.259-.247 2.947.18 4.273.413 1.288 2.324 3.18 3.415 1.418.645-1.043 1.164-1.93 1.288-3.165.118-1.187.137-2.462.19-3.644.052-1.182.458-2.338.708-3.465.293-1.316.01 2.696.01 4.044 0 1.197-.001 2.852.45 3.954.159.389.702 1.959 1.208 1.977 1.528.054 2.758-.24 3.195-1.877.425-1.595.898-3.258 1.438-4.813.555-1.6.647-3.368 1.448-4.903.372-.713.477-1.915 1.028-2.466.132-.132.014.373 0 .56-.075 1.046-.147 2.098-.32 3.134-.21 1.262-.44 2.518-.888 3.715-.688 1.834-1.055 3.75-1.448 5.671-.442 2.165-.477 4.393-.908 6.55-.293 1.461-1.257 2.734-2.007 3.995-.424.71-1.764 3.56-1.568 1.208.139-1.664 1.846-3.515 2.746-4.823 3.007-4.368 7.13-7.964 10.764-11.742.98-1.02 2.198-1.976 2.975-3.156a53.64 53.64 0 012.656-3.714c1.477-1.871 2.57-3.877 3.815-5.911.748-1.222 1.28-2.541 1.797-3.875.51-1.316.687-2.789 1.298-4.053.913-1.893 1.438-4.027 1.438-6.131 0-.721-.108-.312-.36.2-.605 1.227-.968 2.58-1.627 3.774-2.324 4.212-4.37 8.558-5.662 13.21-1.023 3.682-1.301 8.58-4.723 11.003-1.192.845-2.241.316-2.506-.968-.462-2.237-.564-4.007.33-6.09.66-1.54 1.637-2.839 2.646-4.135 1.066-1.371 3.102-1.624 4.353-2.875.385-.385.54-.458.54.15v3.125c0 1.316-.266 2.996.09 4.273.322 1.162.287 3.595 1.986 3.595 2.38 0 5.252-1.573 6.99-3.145 2.681-2.427 4.51-6.088 5.571-9.466.388-1.232.665-2.509.1-3.745-.625-1.367-2.237-.418-3.205.26-1.717 1.202-2.726 3.692-2.726 5.791 0 1.915 0 4.963 1.987 6.081.851.479 2.337.697 3.225.23.774-.407 1.538-.476 2.317-.779 1.041-.405 2-.725 2.935-1.338.42-.274.88-.437 1.298-.719.848-.57 1.466-1.316 2.247-1.967 2.303-1.919 2.167-5.488 2.167-8.238 0-.887.18-1.756.18-2.656 0-1.738-1.108-.884-2.117-.22-1.556 1.026-2.68 3.137-3.315 4.854-.775 2.091-.75 4.92.938 6.61 1.239 1.238 2.898.58 4.494.539 1.32-.035 1.81.066 2.596-1.148 1.07-1.654 3.064-2.59 4.054-4.344 1.23-2.18 2.74-4.866 2.875-7.449.016-.295.123-.33.1-.02-.082 1.1-.899 2.13-1.268 3.155-.511 1.42-1.212 2.665-1.568 4.154-.366 1.538-1.038 3.057-1.038 4.653 0 .948-.086 1.82-.18 2.756-.022.223-.243.922-.4 1.078-.37.37-.484-.266-.399-.509.618-1.763 1.632-3.48 2.057-5.282.23-.976.354-2.006.54-2.995.222-1.188.625-2.43.708-3.635.08-1.15.547-3.17 1.488-3.894.737-.567 1.318-1.442 2.027-2.077.664-.594 1.127-1.03 1.887-1.478.453-.266.801 1.235.979 1.668.357.868.819 2.218.819 3.145 0 1.083.185 2.307-.46 3.245-1.087 1.582-2.885 2.686-4.793 2.686-.887 0-1.345-.211-2.136-.599-.503-.246-.43-.194.01 0 2.225.98 3.96.61 6.081-.3 2.602-1.115 4.896-3.059 6.869-5.032" stroke="#3C3C3C" stroke-width="2" stroke-linecap="round"/></svg>