<svg width="1421" height="3090" viewBox="0 0 1421 3090" fill="none" xmlns="http://www.w3.org/2000/svg">
<path d="M380.579 3049.76C449.261 3017.73 515.764 2960.31 584.256 2925.49C681.9 2890.05 781.751 2888.09 880.831 2924.33C975.493 2974.24 1054.08 3056.12 1188.12 3090C1266.95 3090 1340.7 3063.87 1421 2995.32V2882.2H0V2963.4C121.336 3078.75 252.954 3108.62 380.579 3049.76Z" fill="#F3F2FF"/>
<path d="M380.579 30.551C449.261 54.8725 515.764 98.4662 584.256 124.906C681.9 151.817 781.751 153.306 880.831 125.785C975.493 87.8946 1054.08 25.7234 1188.12 -0.000104427C1266.95 -0.000104427 1340.7 19.8372 1421 71.8837V157.771H0V96.1219C121.336 8.54194 252.954 -14.1347 380.579 30.551Z" fill="#F3F2FF"/>
<path d="M0 157.771H1421V2882.2H0V157.771Z" fill="#F3F2FF"/>
</svg>
