<svg width="1421" height="803" viewBox="0 0 1421 803" fill="none" xmlns="http://www.w3.org/2000/svg">
<path d="M380.579 792.543C449.261 784.219 515.764 769.298 584.256 760.248C681.9 751.038 781.751 750.528 880.831 759.948C975.493 772.916 1054.08 794.196 1188.12 803C1266.95 803 1340.7 796.21 1421 778.396V749H0V770.1C121.336 800.076 252.954 807.838 380.579 792.543Z" fill="#F3F2FF"/>
<path d="M380.579 7.93934C449.261 14.2598 515.764 25.5885 584.256 32.4595C681.9 39.4528 781.751 39.8396 880.831 32.688C975.493 22.8412 1054.08 6.68478 1188.12 0C1266.95 0 1340.7 5.15513 1421 18.6805V41H0V24.9793C121.336 2.21983 252.954 -3.67316 380.579 7.93934Z" fill="#F3F2FF"/>
<path d="M0 41H1421V749H0V41Z" fill="#F3F2FF"/>
</svg>
