<svg width="110" height="63" viewBox="0 0 110 63" fill="none" xmlns="http://www.w3.org/2000/svg">
<path d="M18.5214 40.0857C17.7285 40.1922 16.6787 40.2021 15.9652 40.6249C15.6891 40.7885 15.2344 41.1179 14.9268 41.1641C14.1134 41.2861 13.8667 41.9843 13.2094 42.3323C11.5591 43.206 9.87248 44.5697 8.48644 45.8171C5.89644 48.1481 3.98494 51.1668 2.52537 54.2944C1.80514 55.8378 -0.187685 60.1271 1.98618 61.2141C3.38802 61.915 5.06254 60.6846 6.08005 59.7163C7.02534 58.8167 8.04433 58.2468 8.47646 56.9504C10.1791 51.8425 13.2128 47.411 14.5274 42.1526C14.7483 41.2689 14.8259 40.4233 14.9368 39.5365C15.0939 38.2792 15.6324 37.0422 15.8254 35.7722C16.173 33.4854 16.1463 31.1578 16.814 28.9324C17.3177 27.2532 17.6424 26.1933 17.1235 24.4292C16.8612 23.5374 16.7088 21.7355 15.8254 21.2939C15.2708 21.0165 15.5016 20.7878 14.7171 20.9643C13.844 21.1608 13.2787 21.654 12.5504 22.1126C11.7276 22.6307 11.4221 23.3807 10.793 24.0997C9.76723 25.2719 9.42753 27.4445 9.17541 28.9424C9.00669 29.9448 8.64853 30.9163 8.63622 31.9379C8.61902 33.3653 8.63622 34.7939 8.63622 36.2215C8.63622 37.8448 9.68101 39.4211 10.5334 40.7247C11.2532 41.8257 11.4981 42.8889 12.6702 43.6703C14.3803 44.8104 15.9144 46.706 18.2518 46.1866C18.9897 46.0226 19.9661 45.3775 20.6183 44.9983C21.6259 44.4125 22.3866 43.5895 23.2044 42.7717C24.1038 41.8723 25.0136 40.7821 25.3911 39.5465C25.8708 37.9767 26.0688 36.3408 26.5993 34.7936C27.3646 32.5616 29.0931 31.7137 30.6832 30.1606C31.3848 29.4753 32.4352 27.9326 33.3392 27.6743C34.9726 27.2076 33.8624 33.7351 33.7885 34.5839C33.7106 35.48 33.2602 36.9197 32.79 37.6793C32.2881 38.4902 31.8642 39.7005 31.1026 40.3054C29.6876 41.4291 28.5456 41.883 26.7091 41.883C26.1447 41.883 26.4246 39.6219 26.4296 39.2669C26.4766 35.9257 27.9751 33.6331 29.7446 31.0592C30.7231 29.6359 31.8779 28.8391 33.1795 27.7741C33.322 27.6575 33.7306 27.1669 33.7885 27.5145C33.8716 28.013 34.1093 28.4712 34.2978 28.9424C34.8014 30.2015 34.051 31.889 34.4775 33.216C34.8912 34.5031 36.8019 36.3955 37.8924 34.6339C38.5381 33.5909 39.057 32.7031 39.1805 31.4686C39.2992 30.2817 39.3176 29.0069 39.3702 27.8241C39.4227 26.642 39.8287 25.486 40.0791 24.3593C40.3715 23.0434 40.0891 27.0552 40.0891 28.4032C40.0891 29.6004 40.0875 31.255 40.5384 32.3573C40.6976 32.7464 41.2409 34.3163 41.7466 34.3343C43.275 34.3889 44.5053 34.0943 44.9418 32.4571C45.3671 30.8625 45.84 29.1999 46.3797 27.6443C46.9345 26.0451 47.0266 24.2768 47.8275 22.7417C48.1994 22.0289 48.3048 20.8265 48.856 20.2754C48.9878 20.1436 48.8693 20.6486 48.856 20.8345C48.7812 21.8814 48.7092 22.9335 48.5364 23.9698C48.3262 25.2311 48.0967 26.4873 47.6478 27.6843C46.9598 29.519 46.5925 31.4345 46.2 33.3558C45.7577 35.5204 45.7229 37.7481 45.2913 39.906C44.9991 41.3668 44.0352 42.6396 43.2843 43.9C42.8605 44.6113 41.5207 47.46 41.7167 45.1082C41.8554 43.4439 43.5622 41.593 44.4626 40.2854C47.4701 35.9174 51.593 32.3218 55.2264 28.543C56.2064 27.5238 57.4247 26.567 58.202 25.3877C59.0327 24.1273 59.9224 22.8584 60.858 21.6733C62.3351 19.8023 63.427 17.796 64.6723 15.7621C65.4204 14.5401 65.953 13.2214 66.4696 11.8879C66.9797 10.5711 67.1571 9.09875 67.7676 7.83402C68.6811 5.94183 69.2055 3.80743 69.2055 1.7032C69.2055 0.982221 69.098 1.39175 68.846 1.9029C68.2411 3.13004 67.8775 4.48269 67.2185 5.67725C64.8946 9.88923 62.849 14.2359 61.5569 18.8875C60.5341 22.5696 60.2555 27.4674 56.834 29.891C55.6415 30.7357 54.5928 30.2066 54.3278 28.9224C53.8661 26.6853 53.7642 24.9153 54.6573 22.8316C55.3172 21.2917 56.2953 19.9938 57.3033 18.6977C58.3699 17.3264 60.4055 17.0734 61.6568 15.8221C62.0414 15.4374 62.196 15.3642 62.196 15.9718C62.196 17.0136 62.196 18.0554 62.196 19.0971C62.196 20.4138 61.931 22.0933 62.2859 23.3707C62.6085 24.5323 62.5739 26.9654 64.2729 26.9654C66.6521 26.9654 69.5243 25.3926 71.2624 23.8201C73.944 21.3939 75.7724 17.7324 76.8341 14.3542C77.2213 13.1221 77.499 11.8459 76.9339 10.6099C76.3088 9.24252 74.6969 10.1917 73.7287 10.8695C72.0119 12.0713 71.0028 14.5612 71.0028 16.6608C71.0028 18.575 71.0023 21.6237 72.9898 22.7417C73.841 23.2205 75.3267 23.4389 76.215 22.9713C76.9888 22.5641 77.753 22.4953 78.5315 22.1925C79.5728 21.7876 80.5311 21.4678 81.4671 20.8545C81.8862 20.5799 82.3461 20.4176 82.7652 20.1356C83.6128 19.5651 84.2306 18.8195 85.0118 18.1685C87.3146 16.2495 87.1786 12.6801 87.1786 9.93087C87.1786 9.04303 87.3583 8.17474 87.3583 7.27485C87.3583 5.53684 86.2505 6.39015 85.2415 7.05518C83.6854 8.08079 82.5622 10.1913 81.9264 11.9079C81.1516 13.9999 81.176 16.829 82.865 18.518C84.1037 19.7567 85.7624 19.0992 87.3583 19.0572C88.6786 19.0225 89.1686 19.1233 89.9544 17.9089C91.0247 16.2549 93.0188 15.3196 94.0083 13.5654C95.238 11.3855 96.7481 8.69929 96.884 6.11659C96.8996 5.82149 97.0072 5.78614 96.9839 6.09662C96.9014 7.19579 96.085 8.22616 95.7158 9.25189C95.2045 10.6722 94.5034 11.9164 94.1481 13.4057C93.7814 14.943 93.1097 16.462 93.1097 18.0587C93.1097 19.0059 93.0236 19.8777 92.9299 20.8146C92.9077 21.037 92.6869 21.7366 92.5305 21.893C92.1602 22.2633 92.0461 21.6268 92.1311 21.3837C92.7482 19.6207 93.7626 17.9038 94.1881 16.1016C94.4186 15.1251 94.5418 14.095 94.7273 13.1061C94.9499 11.9185 95.3531 10.6766 95.4362 9.47156C95.5155 8.32176 95.9827 6.30148 96.924 5.5774C97.6611 5.01033 98.2416 4.13516 98.9509 3.50051C99.6147 2.90665 100.078 2.46971 100.838 2.02272C101.291 1.75626 101.638 3.25722 101.817 3.69022C102.174 4.55832 102.635 5.90803 102.635 6.83551C102.635 7.91818 102.821 9.14278 102.176 10.0807C101.089 11.6621 99.2908 12.7666 97.3833 12.7666C96.4959 12.7666 96.0376 12.5553 95.2465 12.1675C94.7441 11.9212 94.8162 11.9738 95.2565 12.1675C97.4822 13.1469 99.2161 12.7771 101.337 11.868C103.94 10.7527 106.234 8.80872 108.207 6.83551" stroke="#3C3C3C" stroke-width="2" stroke-linecap="round"/>
</svg>
