<svg width="110" height="63" viewBox="0 0 110 63" fill="none" xmlns="http://www.w3.org/2000/svg">
<path d="M18.5217 39.7713C17.7288 39.8778 16.6789 39.8877 15.9655 40.3104C15.6893 40.4741 15.2347 40.8035 14.927 40.8496C14.1137 40.9716 13.8669 41.6699 13.2096 42.0179C11.5594 42.8915 9.87273 44.2552 8.48669 45.5027C5.89669 47.8337 3.98518 50.8523 2.52562 53.98C1.80538 55.5233 -0.187441 59.8127 1.98642 60.8996C3.38827 61.6005 5.06279 60.3701 6.08029 59.4018C7.02558 58.5023 8.04457 57.9324 8.4767 56.636C10.1794 51.528 13.213 47.0966 14.5276 41.8382C14.7486 40.9545 14.8262 40.1089 14.937 39.2221C15.0942 37.9648 15.6326 36.7277 15.8257 35.4577C16.1733 33.1709 16.1466 30.8434 16.8142 28.618C17.318 26.9388 17.6426 25.8789 17.1237 24.1147C16.8615 23.223 16.709 21.4211 15.8257 20.9794C15.271 20.7021 15.5019 20.4734 14.7174 20.6499C13.8442 20.8463 13.279 21.3396 12.5506 21.7982C11.7278 22.3162 11.4223 23.0662 10.7932 23.7852C9.76748 24.9575 9.42777 27.1301 9.17566 28.6279C9.00693 29.6304 8.64877 30.6018 8.63646 31.6235C8.61926 33.0509 8.63646 34.4795 8.63646 35.907C8.63646 37.5303 9.68125 39.1067 10.5336 40.4103C11.2535 41.5113 11.4983 42.5745 12.6704 43.3559C14.3806 44.496 15.9147 46.3915 18.2521 45.8721C18.9899 45.7081 19.9663 45.0631 20.6185 44.6839C21.6262 44.098 22.3868 43.275 23.2046 42.4572C24.1041 41.5578 25.0138 40.4677 25.3914 39.2321C25.871 37.6623 26.0691 36.0264 26.5996 34.4792C27.3648 32.2472 29.0934 31.3992 30.6834 29.8461C31.385 29.1609 32.4354 27.6181 33.3395 27.3598C34.9728 26.8932 33.8626 33.4206 33.7888 34.2695C33.7109 35.1656 33.2605 36.6053 32.7903 37.3649C32.2883 38.1757 31.8645 39.3861 31.1028 39.9909C29.6878 41.1146 28.5459 41.5686 26.7094 41.5686C26.145 41.5686 26.4248 39.3074 26.4298 38.9525C26.4769 35.6112 27.9753 33.3186 29.7448 30.7448C30.7234 29.3214 31.8781 28.5246 33.1797 27.4597C33.3222 27.3431 33.7308 26.8524 33.7888 27.2001C33.8719 27.6986 34.1095 28.1568 34.298 28.6279C34.8017 29.887 34.0512 31.5746 34.4778 32.9015C34.8915 34.1887 36.8021 36.0811 37.8926 34.3194C38.5383 33.2764 39.0573 32.3887 39.1807 31.1542C39.2994 29.9673 39.3179 28.6925 39.3704 27.5096C39.423 26.3276 39.829 25.1715 40.0794 24.0448C40.3718 22.7289 40.0893 26.7408 40.0893 28.0888C40.0893 29.286 40.0878 30.9406 40.5387 32.0428C40.6979 32.432 41.2411 34.0018 41.7469 34.0199C43.2753 34.0745 44.5055 33.7798 44.9421 32.1427C45.3673 30.5481 45.8402 28.8854 46.3799 27.3299C46.9348 25.7306 47.0268 23.9623 47.8278 22.4272C48.1997 21.7144 48.3051 20.5121 48.8562 19.9609C48.988 19.8291 48.8695 20.3342 48.8562 20.5201C48.7814 21.567 48.7094 22.6191 48.5367 23.6554C48.3265 24.9167 48.0969 26.1728 47.648 27.3698C46.96 29.2045 46.5927 31.1201 46.2002 33.0413C45.758 35.206 45.7231 37.4337 45.2916 39.5915C44.9994 41.0524 44.0355 42.3251 43.2846 43.5855C42.8608 44.2969 41.5209 47.1455 41.7169 44.7937C41.8556 43.1295 43.5625 41.2786 44.4628 39.971C47.4703 35.6029 51.5932 32.0074 55.2267 28.2285C56.2067 27.2094 57.425 26.2526 58.2022 25.0733C59.033 23.8128 59.9226 22.5439 60.8582 21.3588C62.3353 19.4878 63.4273 17.4816 64.6725 15.4477C65.4207 14.2257 65.9533 12.9069 66.4698 11.5735C66.98 10.2566 67.1573 8.7843 67.7679 7.51956C68.6814 5.62737 69.2057 3.49298 69.2057 1.38875C69.2057 0.667768 69.0982 1.0773 68.8463 1.58845C68.2413 2.81559 67.8778 4.16824 67.2187 5.36279C64.8949 9.57478 62.8493 13.9215 61.5572 18.573C60.5344 22.2551 60.2558 27.153 56.8343 29.5765C55.6418 30.4212 54.593 29.8922 54.328 28.608C53.8664 26.3708 53.7645 24.6009 54.6575 22.5171C55.3175 20.9772 56.2955 19.6793 57.3036 18.3833C58.3702 17.0119 60.4057 16.7589 61.657 15.5076C62.0417 15.123 62.1962 15.0497 62.1962 15.6574C62.1962 16.6991 62.1962 17.7409 62.1962 18.7827C62.1962 20.0994 61.9312 21.7788 62.2861 23.0563C62.6088 24.2179 62.5741 26.6509 64.2731 26.6509C66.6523 26.6509 69.5245 25.0782 71.2626 23.5056C73.9442 21.0794 75.7726 17.4179 76.8343 14.0398C77.2215 12.8077 77.4992 11.5314 76.9342 10.2954C76.3091 8.92807 74.6971 9.87729 73.729 10.555C72.0121 11.7568 71.003 14.2467 71.003 16.3463C71.003 18.2605 71.0025 21.3092 72.9901 22.4272C73.8412 22.906 75.3269 23.1244 76.2152 22.6569C76.989 22.2496 77.7533 22.1808 78.5318 21.8781C79.573 21.4731 80.5313 21.1533 81.4674 20.5401C81.8865 20.2655 82.3464 20.1032 82.7654 19.8211C83.613 19.2506 84.2308 18.5051 85.0121 17.8541C87.3149 15.9351 87.1788 12.3656 87.1788 9.61642C87.1788 8.72858 87.3585 7.86028 87.3585 6.9604C87.3585 5.22238 86.2507 6.0757 85.2417 6.74073C83.6856 7.76634 82.5624 9.87687 81.9267 11.5935C81.1518 13.6855 81.1763 16.5145 82.8653 18.2036C84.104 19.4423 85.7627 18.7847 87.3585 18.7428C88.6789 18.708 89.1689 18.8089 89.9547 17.5945C91.0249 15.9405 93.019 15.0052 94.0086 13.251C95.2383 11.0711 96.7483 8.38484 96.8843 5.80214C96.8998 5.50703 97.0074 5.47168 96.9841 5.78217C96.9017 6.88133 96.0853 7.91171 95.716 8.93744C95.2047 10.3577 94.5036 11.6019 94.1484 13.0912C93.7817 14.6285 93.1099 16.1475 93.1099 17.7442C93.1099 18.6915 93.0239 19.5632 92.9302 20.5001C92.908 20.7225 92.6871 21.4222 92.5308 21.5785C92.1604 21.9489 92.0463 21.3123 92.1314 21.0693C92.7485 19.3062 93.7628 17.5893 94.1883 15.7872C94.4189 14.8107 94.5421 13.7806 94.7275 12.7917C94.9502 11.604 95.3533 10.3622 95.4364 9.15711C95.5157 8.0073 95.9829 5.98703 96.9242 5.26294C97.6614 4.69588 98.2419 3.8207 98.9512 3.18605C99.6149 2.5922 100.078 2.15526 100.838 1.70827C101.291 1.44181 101.639 2.94277 101.817 3.37577C102.174 4.24386 102.636 5.59358 102.636 6.52106C102.636 7.60373 102.821 8.82833 102.176 9.7662C101.089 11.3477 99.2911 12.4522 97.3835 12.4522C96.4962 12.4522 96.0378 12.2409 95.2467 11.8531C94.7443 11.6068 94.8164 11.6593 95.2567 11.8531C97.4825 12.8324 99.2163 12.4626 101.338 11.5535C103.94 10.4382 106.234 8.49427 108.207 6.52106" stroke="#3C3C3C" stroke-width="2" stroke-linecap="round"/>
</svg>
